<svg width="196" height="102" viewBox="0 0 196 102" fill="none" xmlns="http://www.w3.org/2000/svg">
<g clip-path="url(#clip0_7_174)">
<path d="M90.0641 49.8753C94.8456 56.9766 93.4487 67.565 86.9899 73.1781C81.5196 77.9323 81.1629 87.4256 86.261 92.5782C91.3591 97.7308 100.839 97.4577 105.633 92.0202C110.427 86.5826 109.526 77.1255 103.792 72.6941C100.655 70.2695 99.232 66.126 99.1712 62.157C99.1105 58.1881 100.231 54.3075 101.342 50.4972C97.7582 50.6867 94.1744 50.8762 90.0641 49.8753Z" fill="#BD9B5E"/>
<path d="M116.316 14.5604C115.217 14.4298 114.124 14.8002 113.089 15.1364C111.664 15.6412 110.997 15.9156 109.078 16.759C105.661 18.3177 102.243 20.3271 99.3935 22.8946C99.5021 22.5476 99.6218 22.2039 99.7575 21.8656C100.544 20.0396 101.689 18.3969 102.784 16.7467C104.088 14.7789 105.511 12.8936 107.047 11.1015C107.332 11.3673 107.707 11.5151 108.096 11.5152C110.13 11.4647 110.124 8.48018 108.096 8.42415C106.692 8.45899 106.261 9.89078 106.794 10.7935C105.624 11.6405 104.51 12.5627 103.459 13.5543C101.201 15.7553 98.9496 18.1065 97.4715 20.9191C96.8039 18.8427 95.8578 16.8668 94.6592 15.0456C93.2111 12.9211 91.3173 10.8676 88.8541 9.97242C87.1879 9.48946 85.4957 10.5182 85.9642 12.3908C86.6184 14.5459 87.0671 15.4987 87.6643 17.1812C88.6617 19.9614 89.5557 22.2122 91.1983 24.9116C92.1914 26.3549 93.5436 27.4762 94.9116 28.5669C94.9003 28.7555 94.9131 28.9448 94.9497 29.1302C95.0234 29.3971 95.1753 29.6358 95.3857 29.8155C95.1316 35.1138 96.3139 40.5433 97.9534 45.5484C96.5571 45.798 93.8993 46.356 92.2196 46.68C90.0029 47.0377 87.9526 47.2539 85.6528 47.5318C85.513 47.2647 85.2741 46.9839 85.1716 46.7979C85.2627 47.0495 85.3409 47.3051 85.4206 47.5603C85.1623 47.5918 84.9036 47.6233 84.6381 47.6568C84.9158 47.6786 85.1937 47.6966 85.4716 47.7166C85.5969 48.1323 85.7113 48.5514 85.8056 48.9768C86.3926 51.7816 86.4094 54.8809 86.5432 57.958C86.5249 60.8232 85.8856 63.9858 84.9688 66.6753C83.5867 69.7478 82.2012 70.508 80.5676 73.4461C78.1463 77.8314 75.5989 82.4695 75.4123 87.5897C75.468 90.3089 76.3276 92.9504 77.8824 95.18C79.2127 97.1256 81.2572 98.4095 83.4184 99.258C87.3344 100.926 91.5241 101.855 95.7769 101.999C100.727 102.066 105.664 99.7157 108.508 95.6159C112.605 89.9474 114.477 80.4898 112.416 73.7574C111.347 70.6463 110.274 68.9433 108.537 67.0141C107.496 65.854 106.219 64.9263 105.225 63.7229C104.969 63.3924 104.76 63.0287 104.602 62.6418C104.324 61.8211 104.118 60.9775 103.988 60.1207L104.041 60.5145C103.81 59.2678 104.042 57.2215 104.079 57.2102C104.633 54.3267 105.279 52.1158 106.319 50.2461C106.711 49.5482 107.139 48.8711 107.601 48.2174C107.917 47.8716 108.166 47.4697 108.335 47.0325C108.414 46.7087 108.389 46.3679 108.264 46.0591C108.138 45.7502 107.918 45.4892 107.635 45.3134C107.348 45.1189 106.927 45.1039 106.545 45.092C103.886 45.1251 101.209 45.0835 98.5696 45.4465C98.4417 45.4644 98.2781 45.4911 98.0863 45.5246C97.5757 39.7558 97.4139 33.5267 98.1945 28.4035C98.374 28.1051 98.5787 27.8225 98.8062 27.5589C101.34 24.6677 103.053 23.3702 106.032 21.4858C109.253 19.5475 111.162 18.8566 114.837 17.6592C114.991 17.6156 115.112 17.5836 115.222 17.5561C115.018 17.9278 114.778 18.2791 114.542 18.6296C112.692 21.0189 110.456 23.0817 107.928 24.7327C106.044 25.9979 103.512 27.0395 101.651 27.834C100.763 28.2095 99.8644 28.5598 98.9731 28.9266C99.3841 28.8457 99.7958 28.7688 100.207 28.6907C106.343 27.5887 111.504 25.8518 115.892 21.1856C116.795 20.1375 117.809 19.0645 118.182 17.6987C118.501 16.3659 117.806 14.7029 116.316 14.5604ZM104.433 47.8154C103.078 49.8531 102.251 52.1992 101.663 54.5671C100.886 57.3665 100.711 60.3534 101.647 63.1374C102.339 65.5197 104.372 67.0854 105.993 68.8329C107.358 70.2057 108.667 72.5086 109.205 74.0644C110.755 78.9421 110.411 82.2568 108.987 87.5853C108.254 89.877 108.132 90.3269 106.851 92.4892C105.56 94.4661 106.363 93.4018 105.105 94.8328C103.889 96.0136 104.018 95.8855 102.395 96.9147C101.094 97.724 98.591 98.6148 96.1665 98.6285C91.5792 98.5409 86.3295 97.1135 82.3391 94.8317C80.3143 93.656 78.8213 90.4586 78.5635 87.8823C78.5726 85.2185 78.5809 86.0103 78.9613 84.0795C79.3692 82.633 79.8717 81.215 80.4657 79.8347C80.5768 79.5722 80.7188 79.2355 80.4902 79.7738C81.2807 77.7768 82.2885 76.4545 83.6409 74.0238C84.3439 72.9434 85.0861 72.2999 86.2259 70.6409C86.431 70.3513 86.1552 70.7175 86.078 70.8168C88.3623 67.6776 88.6079 63.6699 88.8885 61.7155C89.2082 59.9725 88.6328 56.5203 87.894 53.8236C87.363 51.6676 86.8482 49.6297 85.7668 47.7378C89.81 48.0181 93.8612 48.0876 97.8929 47.5813C99.4998 47.4203 102.022 47.6271 104.433 47.8154V47.8154ZM92.6507 25.1786C90.7798 21.899 90.1407 17.3092 88.8565 13.3187C88.7902 13.0996 88.7126 12.8835 88.6352 12.6674C88.7 12.7078 88.7663 12.7457 88.8288 12.7894C88.9123 12.8504 88.9957 12.9114 89.0792 12.9723C89.1179 13.003 89.1631 13.0387 89.2185 13.0819C90.0776 13.7819 90.85 14.5825 91.5192 15.4665L91.4711 15.4041C91.7539 15.684 93.0143 17.6171 93.6452 18.9465C94.4827 20.6673 95.0602 22.1538 95.1293 23.8911C95.1764 25.0881 95.1387 26.287 95.0164 27.4786C95.0076 27.6774 94.9813 27.8763 94.9567 28.075C94.1229 27.1634 93.3524 26.1956 92.6507 25.1786Z" fill="black"/>
<path d="M105.883 4.43378C103.849 4.48427 103.854 7.46883 105.883 7.52487C107.917 7.47438 107.911 4.48979 105.883 4.43378Z" fill="black"/>
<path d="M109.424 0C107.39 0.0504926 107.395 3.03506 109.424 3.09109C111.457 3.0406 111.452 0.0560097 109.424 0Z" fill="black"/>
<path d="M113.407 1.7735C111.373 1.82399 111.379 4.80857 113.407 4.86458C115.441 4.81409 115.435 1.82953 113.407 1.7735Z" fill="black"/>
<path d="M116.505 5.7639C114.472 5.81436 114.477 8.79896 116.505 8.85499C118.539 8.8045 118.534 5.81991 116.505 5.7639Z" fill="black"/>
<path d="M111.637 9.3109C109.603 9.36139 109.608 12.346 111.637 12.402C113.67 12.3515 113.665 9.36693 111.637 9.3109Z" fill="black"/>
<path d="M110.309 5.32053C108.275 5.37102 108.28 8.3556 110.309 8.41161C112.342 8.36112 112.337 5.37654 110.309 5.32053Z" fill="black"/>
<path d="M95.3434 92.6398C93.2448 92.4858 91.5095 91.8699 90.2627 90.5372C89.4191 89.3754 89.1177 88.5077 88.603 86.8761C87.8616 84.0588 87.9059 84.2251 87.787 81.6144C87.8729 79.3037 88.1025 77.9146 88.831 75.4021C89.2876 74.1133 90.2209 72.4782 91.0558 70.9341C89.7956 72.1804 88.5235 73.4474 87.5853 74.9635C85.6585 78.4667 84.7346 82.7577 86.0792 86.6231C86.9269 89 88.1846 91.697 90.7419 92.5639C92.0943 93.0605 93.5611 93.1551 94.9658 92.8361C95.2964 92.756 96.1325 92.6726 95.3434 92.6398Z" fill="black"/>
<path d="M195.739 63.4849C195.014 62.2877 193.515 62.5271 192.32 62.6039C191.113 62.6817 189.903 62.709 188.694 62.7448C183.448 62.8897 178.203 63.1804 172.954 63.1889C171.594 63.1269 170.235 63.0968 168.876 63.0893C169.143 62.8493 169.411 62.6103 169.674 62.365C172.035 60.2319 173.917 57.6502 175.933 55.2043C178.737 51.8013 181.77 47.5483 183.884 42.9069C185.422 39.1441 188.986 30.3098 183.176 28.7378C180.005 28.1946 178.085 31.5885 176.718 33.9301C176.128 34.9704 175.523 36.1739 174.939 37.4077C175.018 34.2963 174.932 31.161 174.321 28.1021C173.824 26.2265 173.172 24.3956 172.371 22.6285C170.811 18.8725 166.327 14.2421 162.552 18.2674C161.728 19.11 161.013 20.0527 160.423 21.0734C159.794 22.5033 159.36 24.0116 159.133 25.5575C158.31 30.8023 158.656 36.0759 159.255 41.3321C158.251 39.4367 157.14 37.5482 155.447 36.217C153.318 34.4397 149.577 33.5422 147.532 35.8857C146.91 36.6283 146.471 37.5071 146.25 38.451C146.2 38.5787 146.228 38.5305 146.275 38.4339C145.963 39.2613 145.912 40.1511 145.789 41.0252C145.686 42.094 145.732 43.1721 145.928 44.228C145.943 44.3042 145.951 44.346 145.957 44.3744C145.963 44.4173 145.968 44.4602 145.974 44.5031C146.229 45.8857 146.561 47.2765 147.235 48.5205C149.066 51.6292 151.299 54.605 154.111 56.891C155.246 57.8306 156.485 58.6308 157.667 59.5091C158.81 60.3941 159.878 61.3664 160.927 62.3598C160.959 62.6705 160.993 62.981 161.02 63.2923C155.118 63.6055 149.226 64.2236 143.345 64.7782C142.846 64.8417 142.348 64.9161 141.852 65.0014C142.484 65.0097 143.116 65.0315 143.747 65.0667C148.993 65.4542 154.238 65.885 159.499 66.0102C160.15 66.0136 160.8 66.0315 161.45 66.0568C161.541 66.2375 161.657 66.4046 161.794 66.5534C162.11 66.8663 162.515 67.0737 162.954 67.1472C163.392 67.2206 163.842 67.1565 164.243 66.9636C164.651 67.1037 165.091 67.1251 165.51 67.0251C165.93 66.9252 166.313 66.7081 166.614 66.3989C169.796 66.6636 172.975 66.9608 176.17 66.9337C182.396 66.9075 186.814 66.4506 192.258 65.9751C191.304 69.6279 190.18 73.2393 189.103 76.8574C187.989 80.433 186.52 83.8833 185.231 87.397C183.71 91.2673 182.868 93.6366 180.631 97.3939C179.909 98.4684 179.378 98.7376 177.736 98.8531C171.63 99.4741 167.274 98.296 160.867 98.3809C158.424 98.3348 156.472 97.6661 153.289 97.2933C149.999 96.9513 147.062 96.9011 145.29 96.0562C145.269 96.0335 145.249 96.0117 145.233 95.9938C145.207 95.9536 145.184 95.912 145.161 95.8702C145.135 95.7905 145.103 95.6837 145.072 95.5629C144.557 93.3415 144.038 91.121 143.417 88.9264C141.017 80.4242 138.663 71.9099 135.919 63.5111C137.597 73.1868 138.947 82.9337 141.285 92.4798C141.541 93.5994 141.762 94.7263 141.976 95.8546C142.075 96.692 142.412 97.4832 142.947 98.1337C143.807 99.1271 145.159 99.4426 146.393 99.702C148.37 100.112 150.39 100.242 152.401 100.36C155.211 100.542 155.455 100.78 158.616 101.26C160.605 101.591 162.622 101.5 164.627 101.586C168.441 101.89 170.555 102.052 173.84 101.985C175.983 101.943 178.177 101.991 180.269 101.469C182.167 100.887 183.217 99.023 184.076 97.3614C184.991 95.546 185.814 93.6852 186.54 91.7864C188.141 87.5191 189.768 83.2618 191.42 79.0145C192.783 75.3025 193.901 71.5089 195.125 67.7505C195.287 67.2128 195.479 66.6846 195.661 66.1535C195.71 66.0625 195.746 65.9648 195.767 65.8634C195.99 65.0866 196.166 64.2227 195.739 63.4849ZM180.25 36.954C181.081 35.4162 181.574 34.5056 182.023 33.9035C182.097 35.214 181.674 36.5723 181.053 39.2024C179.192 45.7824 174.833 52.3639 170.943 59.3316C170.439 60.1733 169.887 60.982 169.316 61.7785C170.458 59.342 171.463 56.8437 172.327 54.2952C172.441 53.9273 172.541 53.5551 172.646 53.1847C173.581 51.2719 174.527 49.3647 175.464 47.4532C177.117 43.9797 178.455 40.36 180.25 36.954V36.954ZM164.067 24.5058C164.417 23.1435 164.556 23.0755 164.708 22.8237C165.411 21.8671 165.093 22.1402 165.93 21.3565C166.311 21.5945 166.566 21.8184 167.332 22.7438C167.353 22.7759 167.372 22.8053 167.403 22.8512C168.688 24.8847 168.836 25.6826 169.783 28.6959C170.566 31.7841 170.421 37.0683 169.939 41.8783C169.577 45.354 169.375 47.4366 168.247 51.7504C168.096 52.2534 167.953 52.7175 167.812 53.1609C167.269 54.3081 166.73 55.4576 166.212 56.6167C166.004 57.0875 165.799 57.56 165.593 58.0316C165.092 46.4088 161.968 33.8323 164.067 24.5058ZM153.94 52.6739C152.91 51.0916 152.026 49.4201 151.077 47.7891C150.218 46.1287 150.347 46.7154 149.952 44.9366C149.411 43.0039 149.924 39.9201 150.227 39.2572C150.242 39.2226 150.251 39.2008 150.263 39.1731C150.328 39.0371 150.402 38.9054 150.485 38.7788C150.512 38.7496 150.536 38.7245 150.558 38.7022C150.589 38.6945 150.621 38.6899 150.652 38.6828C150.707 38.6816 150.757 38.6811 150.801 38.6819C151.089 38.7367 151.372 38.8151 151.648 38.9162C151.668 38.9242 151.678 38.9276 151.695 38.9343C151.784 38.9743 151.875 39.0118 151.962 39.0561C152.617 39.4491 152.559 39.3376 153.636 40.5152L153.64 40.5216C154.298 41.4721 154.867 42.4823 155.429 43.4914C156.12 44.7722 156.744 46.0886 157.324 47.4233C157.405 47.6237 157.488 47.8231 157.564 48.0254C159.009 51.9026 160.302 57.6447 160.745 60.768C160.107 59.8882 159.444 59.0282 158.725 58.2117C156.748 56.0666 155.107 54.5808 153.94 52.6739H153.94Z" fill="black"/>
<path d="M151.809 25.6362C148.92 25.7079 148.928 29.9479 151.809 30.0275C154.699 29.9558 154.691 25.7158 151.809 25.6362Z" fill="black"/>
<path d="M178.659 22.8916C175.77 22.9633 175.777 27.2033 178.659 27.2829C181.548 27.2112 181.541 22.9712 178.659 22.8916Z" fill="black"/>
<path d="M184.686 54.1796C181.797 54.2513 181.805 58.4913 184.686 58.5709C187.575 58.4992 187.568 54.2592 184.686 54.1796Z" fill="black"/>
<path d="M145.021 72.3661L147.579 93.4139C156.76 93.9701 165.941 94.5263 174.738 96.6146C177.941 88.5482 181.144 80.4819 185.274 73.0867C178.984 79.2335 172.694 85.3803 165.729 90.6233C160.878 89.9558 156.028 89.2882 151.504 88.6187C149.451 83.5371 147.397 78.4555 145.021 72.3661Z" fill="#BD9B5E"/>
<path d="M31.7261 34.4473C31.4196 32.2127 30.9137 29.9563 29.744 28.0289C28.5743 26.1015 26.6454 24.5321 24.4098 24.263C21.5123 23.9143 18.658 25.8863 17.4006 28.5244C16.143 31.1625 16.2764 34.2953 17.1428 37.087C18.0092 39.8786 19.5508 42.4032 21.0771 44.8948L28.5315 57.0635C31.6561 49.9636 32.7616 42.1369 31.7261 34.4473Z" fill="#BD9B5E"/>
<path d="M27.5567 59.1181L30.4668 60.2227C29.8217 59.1697 29.1766 58.1166 28.5315 57.0635C28.2255 57.757 27.9005 58.4419 27.5567 59.1181Z" fill="#BD9B5E"/>
<path d="M27.725 79.594C27.7238 79.5806 27.7227 79.5665 27.7214 79.5546C27.7165 79.5195 27.7109 79.4845 27.7059 79.4495C27.7008 79.429 27.7037 79.4698 27.725 79.594Z" fill="black"/>
<path d="M55.1946 55.536C54.7515 52.5058 54.0406 49.2461 51.8854 46.9488C50.95 45.9362 49.4375 45.4103 48.1104 45.8907C46.7672 46.4374 45.9625 47.7246 45.4994 49.0437C43.6539 53.8683 42.4058 58.9052 40.3211 63.6412C39.0032 67.0294 37.4781 70.3329 35.7542 73.533C34.4609 75.9056 32.9818 78.1684 31.5474 80.4562C31.367 80.5765 31.1951 80.7092 31.0331 80.8533C31.3244 75.0426 31.2392 69.2192 30.778 63.4196C31.011 63.3309 31.217 63.183 31.3758 62.9905C32.2691 62.0009 32.8454 60.77 33.3925 59.5656C34.0417 58.0151 34.6324 56.4403 35.2044 54.8597C37.0043 49.974 38.1814 44.8801 38.7076 39.699C39.0476 36.7652 38.9667 33.7747 38.1936 30.9131C37.5483 28.2548 36.2462 25.6717 33.9754 24.0543C32.7158 23.1226 31.1676 22.7357 29.659 22.4204C28.2002 22.1128 26.7392 21.8093 25.2648 21.5866C24.0329 21.4124 22.7754 21.3041 21.5418 21.522C20.2351 21.7652 19.0037 22.3126 17.9468 23.12C16.178 24.612 14.8421 26.553 14.079 28.7397C13.6205 29.9999 13.3149 31.3108 13.1689 32.6441C12.9605 34.0447 12.9097 35.4643 13.0174 36.8762C13.2866 39.6775 14.4181 42.3081 15.5636 44.8486C16.9836 47.8853 18.7788 50.7312 20.9072 53.3194C23.4985 56.3455 26.4313 59.0558 29.3134 61.8012C29.2597 62.197 29.3133 62.5999 29.4687 62.9677C29.5553 63.1385 29.6903 63.28 29.8567 63.3745C30.0231 63.4689 30.2136 63.5122 30.4045 63.4989C30.0096 67.8332 29.6341 72.1708 29.3405 76.5133C28.7717 74.0225 27.8771 71.6177 26.68 69.3615C24.8869 65.8437 22.2164 62.849 19.1701 60.368C17.7384 59.2459 16.3489 58.0326 14.7337 57.1789C12.8941 56.2834 10.9086 55.727 8.87214 55.5363C7.19007 55.3132 5.40507 55.4943 3.93863 56.4022C1.63291 57.6658 -0.339189 59.8828 0.0490974 62.6831C0.237501 64.9369 1.37671 66.9227 2.77783 68.6431C4.39856 70.7956 6.38524 72.6346 8.4613 74.3382C11.789 77.0809 15.4128 79.4414 19.0978 81.6698C20.3628 82.4015 21.7021 82.9958 23.0931 83.4426C24.9962 83.9738 26.9586 84.25 28.9055 84.5743C28.7051 89.0506 28.8318 93.5363 28.6163 98.0103C28.0516 97.9597 27.4842 97.9465 26.9177 97.971C26.3196 98.0197 25.7298 98.143 25.1622 98.3382C24.6947 98.4609 24.2131 98.5213 23.7298 98.5177C22.9444 98.5414 22.1776 98.7635 21.5008 99.1634C21.1249 99.3081 20.7222 99.3695 20.3203 99.3436C19.252 99.0473 17.6272 98.5679 16.4064 99.1536C15.2434 99.8315 14.2203 100.737 13.1264 101.521C14.3018 100.956 15.4275 100.271 16.6313 99.7711C17.7534 99.5074 18.7533 100.004 19.4613 100.336C20.2295 100.712 21.1101 100.788 21.9312 100.549C22.7171 100.257 22.8321 100.194 23.3008 100.183C23.9972 100.17 24.6961 100.237 25.3868 100.108C25.5581 100.088 26.3176 99.9314 26.4981 99.8859C27.1657 99.8454 27.8356 99.8778 28.4962 99.9825C28.4898 100.068 28.4863 100.154 28.4797 100.24C28.5009 100.157 28.5182 100.073 28.5389 99.9897C28.821 100.038 29.1477 100.097 29.7684 100.157C30.5732 100.279 31.3725 100.092 32.177 100.074C33.2789 100.076 33.5715 100.209 35.0042 100.474C37.2426 100.88 39.4493 101.461 41.7027 101.78C43.5459 102.034 45.4095 102.009 47.2656 101.987C47.3903 101.985 47.5151 101.983 47.6399 101.981C47.6049 101.973 47.5701 101.965 47.5351 101.958C45.5363 101.522 43.5178 101.158 41.5644 100.539C39.5045 99.8717 37.4677 99.13 35.3645 98.6049C34.3397 98.3286 33.3019 98.0404 32.2351 98.0097C31.5215 97.9877 30.8156 98.1394 30.1024 98.1131C29.7279 98.0976 29.3533 98.0675 28.9787 98.0379C29.6686 94.6724 30.0319 91.2472 30.4206 87.8341C30.5447 86.826 30.6533 85.8167 30.7462 84.8062C31.6116 85.7082 33.1529 86.0884 34.5592 86.0444C36.2143 86.0883 37.773 85.5197 39.2337 84.7894C41.269 83.759 43.1721 82.4851 44.901 80.9954C47.6185 78.7957 49.9014 76.1063 51.632 73.0659C52.4342 71.6711 53.1422 70.224 53.7512 68.7344C54.23 67.3641 54.5994 65.958 54.856 64.5291C55.469 61.5714 55.5835 58.5316 55.1946 55.536ZM28.922 84.151C28.9164 84.2643 28.914 84.3777 28.9088 84.4909C27.068 83.8247 24.9382 83.125 23.5269 82.4965C22.2342 81.8715 21.0031 81.1257 19.85 80.2692C15.5921 76.9538 11.7439 74.4088 8.08932 71.1733C6.75864 70.0047 5.5389 68.7151 4.44573 67.321C3.83335 66.4953 3.18599 65.6839 2.75163 64.7461C2.43193 64.0259 2.21406 63.2646 2.10433 62.4841C2.09677 62.3334 2.06919 61.8816 2.08418 61.5971C2.09023 61.5683 2.10274 61.4993 2.12096 61.393C2.34155 59.6871 4.34204 58.311 5.85379 57.6847C6.97265 57.2884 8.10857 57.4227 9.785 57.6203C11.0617 57.8621 12.3078 58.2444 13.5007 58.7603C15.3831 59.7514 16.1 60.4803 17.5289 61.5956C20.3461 63.926 22.329 66.0227 23.9909 68.7634C25.8289 71.8861 26.6429 74.1103 27.4228 77.7415C27.5371 78.3072 27.6259 78.8778 27.7059 79.4495C27.7129 79.4842 27.7181 79.5193 27.7214 79.5545C27.7267 79.5938 27.7333 79.633 27.7387 79.6722C27.7329 79.6407 27.7292 79.6185 27.725 79.594C27.7285 79.634 27.7317 79.6779 27.733 79.7274C27.7155 80.3507 27.7774 80.0677 27.6499 80.4743C27.5995 80.473 27.5494 80.4664 27.4991 80.4618C27.4653 80.454 27.4244 80.4443 27.3713 80.4312C25.3476 79.7444 21.9026 75.5694 19.1085 73.0204C15.4059 69.5916 11.3114 66.6059 7.74717 63.0247C10.1237 66.8429 14.3911 71.0309 17.7857 74.6375C19.8591 76.6301 25.8455 84.5938 29.0051 82.3255C28.976 82.9339 28.9465 83.5423 28.922 84.151ZM27.0919 32.6176C26.6658 31.6891 26.1456 30.807 25.5394 29.9851C25.6566 30.2195 25.7734 30.4547 25.8764 30.6959C26.7375 32.7671 27.2679 35.0933 27.7204 37.3329C28.8592 42.7302 29.5355 46.9482 29.6753 52.282C29.7237 54.6385 29.6338 56.9965 29.5007 59.3491C29.4539 60.0718 29.3981 60.7938 29.3333 61.5151C29.332 61.5342 29.3306 61.5536 29.3291 61.5728C26.9773 58.4534 24.7248 55.7175 22.5616 52.7086C20.2628 49.4382 18.2918 45.9485 16.6771 42.2903C16.3604 41.5092 15.4049 39.2054 15.1114 37.5284C15.0906 37.4143 15.0535 37.178 15.0338 37.0554C14.8985 35.8611 14.8953 34.6555 15.0241 33.4605C15.1222 32.038 15.4102 30.6351 15.8804 29.2892C16.8202 26.5733 18.882 23.8621 21.734 23.3352C23.3557 23.0235 25.537 23.4227 27.8404 23.8986C29.0913 24.1158 30.324 24.4268 31.5283 24.8291C31.8106 24.9369 32.0826 25.0702 32.3407 25.2273C32.6215 25.3818 32.8856 25.5649 33.1289 25.7736C35.0445 27.5293 35.5665 28.7961 36.2992 31.4101C36.8664 33.6838 36.9988 35.0021 36.9053 37.5713C36.5904 43.3393 35.2524 49.0871 33.0679 55.0334C32.5235 56.5154 31.963 58.0264 31.3917 59.2983C31.6803 55.2068 31.7637 51.0889 31.2825 47.0101C30.5644 42.0398 29.1538 37.1951 27.0919 32.6176ZM52.6161 64.3609C52.1061 66.5922 51.7997 67.7709 50.9693 69.3992C50.4131 70.5765 49.0733 72.847 48.9168 73.0691C48.5836 73.5856 48.2318 74.0886 47.8661 74.5823C44.887 78.4188 40.4569 81.8238 37.1653 83.1999C35.8776 83.765 34.452 83.9365 33.0673 83.6927C32.5282 83.5191 32.7972 83.6756 32.2238 83.2985C32.1954 83.2735 32.1706 83.2508 32.1499 83.2306C32.1464 83.1117 32.149 82.9927 32.1574 82.8741C32.1684 82.8021 32.1835 82.7309 32.2029 82.6607L32.2036 82.6588C32.2193 82.63 32.2386 82.6033 32.2564 82.5757C32.7025 82.0786 32.5873 82.2275 33.4221 81.77C37.212 79.8645 40.2353 76.7889 42.9026 73.542C45.1644 70.8743 47.092 67.8951 48.2833 64.5908C48.8931 62.6447 49.3827 60.6628 49.7493 58.6564C50.0878 56.7348 50.2727 54.7892 50.3024 52.8382C50.2822 52.9368 50.2614 53.0354 50.2408 53.1341C49.838 55.1178 49.3159 57.0754 48.6772 58.996C48.054 60.7864 47.2853 62.9738 46.7502 64.1447C45.6375 66.3435 44.3064 68.4242 42.7769 70.3553C41.5089 71.9947 38.2151 75.8639 35.7609 77.787C34.8733 78.5058 33.9208 79.1403 32.9157 79.6822C32.4932 79.9051 32.0441 80.1321 31.6306 80.401C34.0026 77.7484 36.3128 75.0267 38.2096 72.006C40.5422 68.3684 42.3303 64.4141 43.8092 60.3597C44.876 57.4363 45.6532 54.4194 46.6399 51.4695C47.1511 50.0385 47.2697 49.3546 47.8677 48.3605L47.8869 48.3368C48.0554 48.1501 48.2393 47.9778 48.4365 47.8218C49.4922 47.1126 50.595 47.8915 51.7592 50.344C52.0209 50.8324 52.6968 53.0487 52.9223 54.4424C52.9374 54.5856 53.0279 55.1433 53.0686 55.3781C53.4437 58.3758 53.2905 61.4163 52.6161 64.3609Z" fill="black"/>
</g>
<defs>
<clipPath id="clip0_7_174">
<rect width="196" height="102" fill="white"/>
</clipPath>
</defs>
</svg>
